<?xml version="1.0" encoding="UTF-8" standalone="no"?>
<!-- Created with Inkscape (http://www.inkscape.org/) -->

<svg
   xmlns:dc="http://purl.org/dc/elements/1.1/"
   xmlns:cc="http://creativecommons.org/ns#"
   xmlns:rdf="http://www.w3.org/1999/02/22-rdf-syntax-ns#"
   xmlns:svg="http://www.w3.org/2000/svg"
   xmlns="http://www.w3.org/2000/svg"
   xmlns:sodipodi="http://sodipodi.sourceforge.net/DTD/sodipodi-0.dtd"
   xmlns:inkscape="http://www.inkscape.org/namespaces/inkscape"
   width="2000"
   height="500"
   viewBox="0 0 2000 500.00002"
   version="1.1"
   id="svg1401"
   inkscape:export-filename="C:\Users\Erdem\Desktop\logo3.png"
   inkscape:export-xdpi="96"
   inkscape:export-ydpi="96"
   inkscape:version="0.92.3 (2405546, 2018-03-11)"
   sodipodi:docname="logo-3-h.svg">
  <defs
     id="defs1395">
    <linearGradient
       id="linearGradient4577">
      <stop
         style="stop-color:#0d47a1;stop-opacity:1;"
         offset="0"
         id="stop4573" />
      <stop
         id="stop4601"
         offset="0.25"
         style="stop-color:#0d47a1;stop-opacity:0.39607843;" />
      <stop
         id="stop4599"
         offset="0.5"
         style="stop-color:#0d47a1;stop-opacity:0.50980392;" />
      <stop
         style="stop-color:#0d47a1;stop-opacity:0.25899279;"
         offset="1"
         id="stop4575" />
    </linearGradient>
  </defs>
  <sodipodi:namedview
     id="base"
     pagecolor="#ffffff"
     bordercolor="#666666"
     borderopacity="1.0"
     inkscape:pageopacity="0"
     inkscape:pageshadow="2"
     inkscape:zoom="0.7"
     inkscape:cx="1045.1653"
     inkscape:cy="276.80373"
     inkscape:document-units="px"
     inkscape:current-layer="layer1"
     showgrid="false"
     units="px"
     inkscape:snap-bbox="true"
     inkscape:bbox-paths="true"
     inkscape:bbox-nodes="true"
     inkscape:pagecheckerboard="true"
     inkscape:showpageshadow="false"
     inkscape:window-width="1920"
     inkscape:window-height="1003"
     inkscape:window-x="-9"
     inkscape:window-y="-9"
     inkscape:window-maximized="1" />
  <metadata
     id="metadata1398">
    <rdf:RDF>
      <cc:Work
         rdf:about="">
        <dc:format>image/svg+xml</dc:format>
        <dc:type
           rdf:resource="http://purl.org/dc/dcmitype/StillImage" />
        <dc:title />
      </cc:Work>
    </rdf:RDF>
  </metadata>
  <g
     inkscape:label="Layer 1"
     inkscape:groupmode="layer"
     id="layer1"
     transform="translate(0,-622.51962)">
    <rect
       style="opacity:1;fill:#ffffff;fill-opacity:1;fill-rule:nonzero;stroke:none;stroke-width:0;stroke-miterlimit:4;stroke-dasharray:none;stroke-opacity:1;paint-order:fill markers stroke"
       id="rect860"
       width="2000"
       height="499.94257"
       x="0"
       y="622.57703"
       rx="200" />
    <circle
       style="opacity:1;fill:#ce2043;fill-opacity:1;fill-rule:nonzero;stroke:none;stroke-width:0;stroke-miterlimit:4;stroke-dasharray:none;stroke-opacity:1;paint-order:fill markers stroke"
       id="path824"
       cx="250"
       cy="872.51959"
       r="225" />
    <g
       id="layer102"
       style="fill:#ff0000;fill-opacity:1;stroke:none;stroke-width:0;stroke-miterlimit:4;stroke-dasharray:none;stroke-opacity:1"
       transform="matrix(0,0.0682005,-0.0682005,0,713.5288,556.17862)"
       inkscape:export-xdpi="600"
       inkscape:export-ydpi="600" />
    <g
       id="layer102-5"
       style="fill:#ffffff;fill-opacity:1;stroke:#0d47a1;stroke-width:0;stroke-miterlimit:4;stroke-dasharray:none;stroke-opacity:0.01960784"
       transform="matrix(0,0.04786275,-0.04786275,0,544.81136,628.18377)"
       inkscape:export-xdpi="600"
       inkscape:export-ydpi="600">
      <path
         d="m 7273.0555,9822.9934 c -449.3528,-28.0845 -647.9506,-47.1419 -1023.0799,-99.2989 -200.6039,-28.0846 -426.2833,-69.2084 -566.706,-104.314 -19.0574,-5.0151 -57.1722,-14.0423 -85.2567,-21.0634 -300.9059,-71.2144 -1064.2037,-324.9784 -1296.9042,-431.2984 -35.1057,-16.0483 -69.2084,-29.0876 -75.2265,-29.0876 -7.0211,0 -21.0634,-6.0181 -32.0966,-13.0393 -11.0332,-7.0211 -45.1359,-24.0724 -75.2265,-36.1087 -166.5012,-70.2113 -378.1383,-188.5676 -416.2531,-232.7005 219.955,-95.6792 324.1739,-43.1819 478.4403,17.0514 32.0967,13.0392 81.2446,35.1056 110.3322,48.1449 29.0875,13.0392 114.3442,47.1419 188.5676,76.2295 74.2235,29.0875 144.4349,56.1691 155.4681,61.1842 63.1902,27.0815 478.4403,166.5012 697.0985,233.7035 133.4016,40.1208 326.9844,92.2778 421.2682,113.3412 138.4167,30.0906 360.084,72.2174 405.2199,78.2355 26.0785,3.0091 86.2597,12.0363 134.4046,20.0604 48.1449,8.0242 137.4137,19.0574 197.5949,25.0755 61.1841,6.0181 117.3532,13.0393 125.3774,15.0453 13.0392,4.0121 168.5073,18.0544 334.0055,31.0936 32.0966,2.006 111.3352,9.0272 175.5284,14.0423 123.3714,10.0302 488.4705,12.0362 523.5762,3.009 11.0332,-3.009 20.0604,-9.0271 20.0604,-13.0392 0,-22.0664 -275.8304,-172.5194 -496.4947,-270.8153 -27.0815,-12.0362 -79.2385,-36.1087 -115.3472,-52.157 -68.2054,-31.0936 -72.2174,-32.0966 -160.4831,-71.2144 -88.2658,-39.1177 -166.5013,-76.2295 -299.9029,-138.4167 -67.2023,-33.0996 -125.3774,-59.1781 -128.3865,-59.1781 -7.0211,0 -687.0683,-341.0267 -780.3492,-391.1776 -44.1328,-24.0725 -105.317,-56.1691 -135.4076,-73.2205 -134.4046,-72.2174 -195.5888,-105.317 -344.0357,-191.5767 -87.2627,-50.151 -167.5042,-96.2899 -177.5344,-102.308 -11.0332,-6.0181 -28.0846,-18.0543 -38.1148,-27.0815 -10.0302,-10.0302 -21.0634,-17.0513 -24.0724,-17.0513 -7.0212,0 -171.5164,-110.3322 -254.767,-170.5133 -33.0996,-24.0725 -88.2657,-64.1933 -122.3684,-89.2688 -128.3865,-93.2808 -502.5127,-400.2048 -643.9385,-527.5882 -101.305,-92.2778 -482.4524,-474.4283 -566.706,-568.7121 -49.148,-56.1691 -97.2929,-108.3261 -106.3201,-117.3533 -60.1812,-61.1842 -409.2319,-491.4795 -524.5792,-647.9506 -49.1479,-66.1993 -101.305,-136.4106 -115.3472,-155.468 -15.0453,-19.0574 -34.1027,-46.1389 -44.1329,-60.1812 -9.0272,-14.0422 -33.0996,-47.1419 -52.157,-75.2264 -30.0906,-41.1238 -131.3956,-193.5828 -250.7549,-376.1324 -13.0392,-19.0573 -34.1026,-55.166 -48.1449,-80.2415 -13.0393,-25.0755 -34.1027,-63.1902 -47.1419,-85.2567 -27.0816,-47.1419 -121.3654,-234.7065 -143.4318,-285.8605 -35.1057,-79.2386 -105.3171,-270.8153 -126.3805,-341.0267 -12.0362,-41.1238 -26.0785,-88.2657 -31.0936,-105.317 -17.0513,-56.1691 -51.154,-229.6915 -76.2295,-386.1625 -37.1117,-242.7307 -35.1056,-540.6275 8.0242,-722.1741 68.2053,-294.8877 268.8092,-548.6516 554.6698,-700.1076 61.1842,-32.0966 169.5103,-77.2325 220.6643,-92.2778 307.927,-86.2597 449.3527,-104.314 862.5967,-104.314 298.8999,-1.003 578.7423,8.0242 631.9023,19.0574 11.0333,3.009 108.3261,14.0422 215.6492,25.0755 249.7519,26.0785 505.5219,70.2113 712.1439,124.3744 52.157,14.0422 106.32,28.0845 120.3623,32.0966 190.5737,49.148 480.4464,159.4801 687.0684,259.782 344.0357,166.5013 629.8962,372.1203 932.8081,669.0141 283.8545,278.8394 442.3316,536.6154 522.5732,849.5575 47.1419,182.5495 67.2023,368.1081 61.1842,557.6788 -5.0151,170.5133 -17.0514,250.7549 -56.1691,373.1233 -75.2265,236.7126 -273.8243,466.4041 -585.7634,680.0472 -90.2718,62.1872 -236.7126,155.468 -242.7307,155.468 -89.5288,47.6628 -176.779,100.3143 -273.8244,146.4409 l -321.217,133.2762 c 772.1787,451.4607 777.5675,474.5881 1289.1309,928.9214 173.5223,196.5919 304.9179,400.2048 334.0055,517.5581 18.0543,69.2083 39.1177,219.6613 40.1207,274.8273 -6.4909,78.324 -15.8071,96.1147 -96.2898,168.5073 -88.4796,59.392 -266.8032,57.1721 -410.235,38.1148 -292.8817,-39.1178 -708.1318,-153.462 -998.0044,-275.8304 -342.0297,-144.4348 -749.2556,-403.2138 -927.7931,-589.7755 -92.2778,-95.2868 -122.3683,-136.4106 -172.5193,-233.7035 -116.3503,-225.6794 -127.3835,-402.2108 -36.1087,-583.7574 65.1963,-130.3925 177.5344,-200.6039 474.4282,-295.8907 196.5918,-63.1903 196.596,-63.3231 536.6154,-198.5979 -88.1403,11.5347 -916.7598,-456.3739 -1014.0527,-521.5701 -12.0362,-8.0242 -75.2264,-54.1631 -141.4257,-101.305 -105.3171,-77.2325 -899.7085,-613.8479 -984.9652,-665.0019 -48.1449,-29.0876 -88.2657,-72.2174 -93.2808,-98.2959 -18.0543,-97.2929 99.2989,-177.5345 174.5254,-118.3563 14.0423,11.0332 223.6734,151.4559 465.4011,313.9451 242.7307,161.4861 478.4403,320.9662 525.5822,355.0689 47.1419,34.1026 99.2989,71.2144 115.3472,83.2506 26.0785,18.0543 102.308,76.2295 261.7881,195.5888 67.2023,51.154 180.5435,142.4288 437.3165,353.0629 136.4107,112.3381 250.7549,203.6129 253.7639,203.6129 8.0242,0 97.2929,-40.1208 215.6492,-97.2929 176.5315,-85.2566 355.0689,-194.5858 567.7091,-345.0387 57.1721,-39.1177 162.4891,-136.4106 223.6733,-203.6129 199.6009,-220.6643 262.7911,-532.6034 190.5737,-944.8444 -64.1932,-374.1263 -206.622,-628.8932 -517.558,-926.79 -84.2537,-81.2446 -334.0055,-287.8666 -414.2471,-344.0357 -313.9451,-217.6553 -669.014,-381.1474 -1058.1856,-489.4736 -22.0664,-6.0181 -51.154,-15.0452 -65.1962,-19.0573 -14.0423,-5.0151 -56.1691,-16.0483 -95.2869,-25.0755 -38.1147,-8.0242 -88.2657,-20.0604 -110.3321,-25.0755 -151.456,-35.1057 -444.3377,-80.2416 -611.8419,-95.2869 -38.1148,-3.009 -104.3141,-10.0301 -145.4379,-15.0452 -41.1238,-4.0121 -95.2868,-9.0272 -120.3623,-10.0302 -25.0755,-1.0031 -65.1963,-3.0091 -90.2718,-5.0151 -161.4861,-13.0393 -503.5157,-16.0483 -638.9234,-6.0182 -152.4589,12.0363 -365.0991,41.1238 -436.3135,61.1842 -21.0634,5.0151 -57.1721,15.0453 -80.2415,21.0634 -165.4982,43.1299 -327.9874,130.3926 -437.3165,232.7006 -232.7006,219.6612 -306.924,540.6275 -237.7157,1030.101 42.1269,292.8817 95.2869,495.4916 192.5798,732.2042 37.1117,90.2718 145.4378,311.9391 181.5465,371.1173 12.0363,19.0573 26.0785,45.1358 32.0966,58.1751 5.0151,12.0362 18.0544,35.1057 29.0876,50.151 10.0302,15.0453 75.2265,113.3412 145.4378,217.6552 69.2084,105.317 138.4167,207.625 153.462,228.6884 16.0483,20.0604 41.1238,56.1691 58.1752,80.2416 16.0483,23.0695 48.1449,65.1963 70.2113,94.2838 22.0665,29.0876 72.2174,94.2839 110.3322,144.4348 182.5495,238.7187 309.933,390.1746 577.7392,685.0624 397.1957,438.3195 893.6904,867.6118 1397.2062,1207.6355 109.3291,73.2204 390.1746,245.7397 431.2984,263.7941 11.0332,5.0151 39.1177,20.0604 61.1842,32.0966 51.1539,29.0876 192.5797,106.3201 320.9662,174.5254 98.2959,52.157 675.0321,340.0236 792.3854,395.1897 33.0996,15.0453 110.3322,51.154 170.5133,79.2385 61.1842,29.0876 151.456,70.2114 200.6039,92.2778 50.151,22.0665 118.3563,53.1601 153.462,69.2084 35.1057,16.0483 65.1963,29.0875 67.2023,29.0875 6.0181,0 184.5556,84.2537 310.9361,147.4439 191.5767,95.2869 259.782,138.4167 330.9964,209.6311 64.1932,65.1962 79.2385,93.2808 89.2687,175.5284 5.0151,42.1268 15.0358,59.7907 -23.4551,128.2468 -49.1479,77.2325 -67.8196,60.3209 -148.0612,77.3722 -62.1872,13.0392 -360.084,24.0725 -469.4131,17.0513 z m 20.0604,-1671.0305 c -19.0574,-177.5344 -70.2114,-275.8303 -259.7821,-503.5158 -225.6794,-271.8183 -683.9695,-698.2763 -1189.4914,-1122.5535 -362.9582,109.3 -228.1513,69.2428 -367.4456,113.2652 -242.8581,76.7524 -332.7517,149.7006 -369.8635,192.8305 -30.0905,37.1117 -55.166,117.3532 -55.166,180.5435 0,84.2536 62.1872,239.7216 137.4136,342.0296 40.1208,55.1661 152.459,161.4862 214.6462,203.613 24.0725,16.0483 57.1721,40.1208 72.2174,52.157 53.16,43.1298 292.8817,186.5616 422.2712,253.7639 132.3986,68.2054 349.0508,157.4741 487.4675,200.6039 41.1238,12.0363 100.302,31.0936 130.3925,41.1238 30.0906,9.0272 105.3171,29.0876 165.4983,43.1299 61.1842,15.0453 129.3895,31.0936 152.4589,37.1117 231.7219,49.7332 475.7724,130.0414 459.383,-34.1027 z"
         id="path7"
         inkscape:connector-curvature="0"
         style="opacity:0.97000002;fill:#ffffff;fill-opacity:1;stroke:#0d47a1;stroke-width:0;stroke-miterlimit:4;stroke-dasharray:none;stroke-opacity:0.01960784"
         sodipodi:nodetypes="cccccsscccssccccscccccsccscscccccsccccccccccccccccccccccccccccccccccccccccccccccccccscccsccccccccccccscccccccccccccscccccccccsscccccccccscsccccccccc"
         inkscape:export-xdpi="600"
         inkscape:export-ydpi="600" />
    </g>
    <flowRoot
       xml:space="preserve"
       id="flowRoot824"
       style="font-style:normal;font-variant:normal;font-weight:normal;font-stretch:normal;font-size:40px;line-height:1.25;font-family:K2D;-inkscape-font-specification:K2D;letter-spacing:5px;word-spacing:0px;fill:#000200;fill-opacity:1;stroke:none"
       transform="matrix(5.3530771,0,0,5.3530771,194.0224,-1385.5069)"><flowRegion
         id="flowRegion826"
         style="font-style:normal;font-variant:normal;font-weight:normal;font-stretch:normal;font-family:K2D;-inkscape-font-specification:K2D;letter-spacing:5px;fill:#000200;fill-opacity:1"><rect
           id="rect828"
           width="387.85715"
           height="96.428574"
           x="60.714287"
           y="398.57144"
           style="font-style:normal;font-variant:normal;font-weight:normal;font-stretch:normal;font-family:K2D;-inkscape-font-specification:K2D;letter-spacing:5px;fill:#000200;fill-opacity:1" /></flowRegion><flowPara
         id="flowPara830"
         style="font-style:normal;font-variant:normal;font-weight:normal;font-stretch:normal;font-family:K2D;-inkscape-font-specification:K2D;letter-spacing:4.48340273px;fill:#000200;fill-opacity:1">DUAYENLER</flowPara></flowRoot>    <flowRoot
       xml:space="preserve"
       id="flowRoot824-9"
       style="font-style:normal;font-variant:normal;font-weight:normal;font-stretch:normal;font-size:40px;line-height:1.25;font-family:'Futura Bk BT';-inkscape-font-specification:'Futura Bk BT';letter-spacing:5px;word-spacing:0px;fill:#000000;fill-opacity:1;stroke:none"
       transform="matrix(1.6993508,0,0,1.6993508,1550.2854,282.64549)"><flowRegion
         id="flowRegion826-6"
         style="font-style:normal;font-variant:normal;font-weight:normal;font-stretch:normal;font-family:'Futura Bk BT';-inkscape-font-specification:'Futura Bk BT';letter-spacing:5px;fill:#000000;fill-opacity:1"><rect
           id="rect828-0"
           width="387.85715"
           height="96.428574"
           x="60.714287"
           y="398.57144"
           style="font-style:normal;font-variant:normal;font-weight:normal;font-stretch:normal;font-family:'Futura Bk BT';-inkscape-font-specification:'Futura Bk BT';letter-spacing:5px;fill:#000000;fill-opacity:1" /></flowRegion><flowPara
         id="flowPara830-3"
         style="font-style:normal;font-variant:normal;font-weight:normal;font-stretch:normal;font-family:'K2D Thin';-inkscape-font-specification:'K2D Thin, ';letter-spacing:5px;fill:#000000;fill-opacity:1">Ltd. Şti.</flowPara></flowRoot>  </g>
</svg>
