<?xml version="1.0" encoding="UTF-8" standalone="no"?>
<!-- Created with Inkscape (http://www.inkscape.org/) -->

<svg
   xmlns:dc="http://purl.org/dc/elements/1.1/"
   xmlns:cc="http://creativecommons.org/ns#"
   xmlns:rdf="http://www.w3.org/1999/02/22-rdf-syntax-ns#"
   xmlns:svg="http://www.w3.org/2000/svg"
   xmlns="http://www.w3.org/2000/svg"
   xmlns:sodipodi="http://sodipodi.sourceforge.net/DTD/sodipodi-0.dtd"
   xmlns:inkscape="http://www.inkscape.org/namespaces/inkscape"
   width="500"
   height="500"
   viewBox="0 0 499.99999 500.00002"
   version="1.1"
   id="svg1401"
   inkscape:export-filename="C:\Users\Erdem\Desktop\logo1.png"
   inkscape:export-xdpi="96"
   inkscape:export-ydpi="96"
   inkscape:version="0.92.3 (2405546, 2018-03-11)"
   sodipodi:docname="logo-1-with-stroke.svg">
  <defs
     id="defs1395">
    <linearGradient
       id="linearGradient4577">
      <stop
         style="stop-color:#0d47a1;stop-opacity:1;"
         offset="0"
         id="stop4573" />
      <stop
         id="stop4601"
         offset="0.25"
         style="stop-color:#0d47a1;stop-opacity:0.39607843;" />
      <stop
         id="stop4599"
         offset="0.5"
         style="stop-color:#0d47a1;stop-opacity:0.50980392;" />
      <stop
         style="stop-color:#0d47a1;stop-opacity:0.25899279;"
         offset="1"
         id="stop4575" />
    </linearGradient>
  </defs>
  <sodipodi:namedview
     id="base"
     pagecolor="#ffffff"
     bordercolor="#666666"
     borderopacity="1.0"
     inkscape:pageopacity="0"
     inkscape:pageshadow="2"
     inkscape:zoom="1.4"
     inkscape:cx="196.31224"
     inkscape:cy="332.33119"
     inkscape:document-units="px"
     inkscape:current-layer="layer1"
     showgrid="false"
     units="px"
     inkscape:snap-bbox="true"
     inkscape:bbox-paths="true"
     inkscape:bbox-nodes="true"
     inkscape:pagecheckerboard="true"
     inkscape:showpageshadow="false"
     inkscape:window-width="1920"
     inkscape:window-height="1003"
     inkscape:window-x="-9"
     inkscape:window-y="-9"
     inkscape:window-maximized="1" />
  <metadata
     id="metadata1398">
    <rdf:RDF>
      <cc:Work
         rdf:about="">
        <dc:format>image/svg+xml</dc:format>
        <dc:type
           rdf:resource="http://purl.org/dc/dcmitype/StillImage" />
        <dc:title></dc:title>
      </cc:Work>
    </rdf:RDF>
  </metadata>
  <g
     inkscape:label="Layer 1"
     inkscape:groupmode="layer"
     id="layer1"
     transform="translate(0,-622.51962)">
    <rect
       style="opacity:1;fill:#ce2043;fill-opacity:1;fill-rule:nonzero;stroke:none;stroke-width:0;stroke-miterlimit:4;stroke-dasharray:none;stroke-opacity:1;paint-order:fill markers stroke"
       id="rect860"
       width="500"
       height="500"
       x="0"
       y="622.51959"
       rx="50" />
    <g
       id="layer102"
       style="fill:#ff0000;fill-opacity:1;stroke:none;stroke-width:0;stroke-miterlimit:4;stroke-dasharray:none;stroke-opacity:1"
       transform="matrix(0,0.0682005,-0.0682005,0,713.5288,556.17862)"
       inkscape:export-xdpi="600"
       inkscape:export-ydpi="600" />
    <g
       id="layer102-5"
       style="fill:#0d47a1;fill-opacity:1;stroke:#0d47a1;stroke-width:0;stroke-miterlimit:4;stroke-dasharray:none;stroke-opacity:0.01960784"
       transform="matrix(0,0.04786275,-0.04786275,0,544.81136,628.18377)"
       inkscape:export-xdpi="600"
       inkscape:export-ydpi="600" />
    <ellipse
       style="opacity:1;fill:#ffffff;fill-opacity:1;fill-rule:nonzero;stroke:#000000;stroke-width:4.14025116;stroke-miterlimit:4;stroke-dasharray:none;stroke-opacity:1;paint-order:fill markers stroke"
       id="path824-9"
       cx="250"
       cy="845.96783"
       rx="197.92987"
       ry="197.98164" />
    <path
       d="m 95.711707,937.27927 c 1.18278,-18.92463 1.98539,-27.2886 4.182,-43.08729 1.182773,-8.44849 2.914713,-17.95304 4.393203,-23.86697 0.21121,-0.80261 0.59139,-2.40783 0.88709,-3.59061 2.99921,-12.67273 13.68654,-44.81922 18.16424,-54.61945 0.67587,-1.47849 1.22503,-2.91474 1.22503,-3.16819 0,-0.2957 0.25345,-0.88709 0.54915,-1.35175 0.2957,-0.46467 1.01382,-1.90091 1.52073,-3.16819 2.95698,-7.01224 7.94157,-15.92539 9.80024,-17.53061 4.02955,9.26347 1.81861,13.65267 -0.71813,20.14964 -0.54914,1.35177 -1.47848,3.42163 -2.02763,4.64667 -0.54915,1.22502 -1.98539,4.81563 -3.21042,7.94158 -1.22503,3.12593 -2.36558,6.08291 -2.57678,6.54757 -1.14055,2.66128 -7.01225,20.14964 -9.8425,29.35848 -1.68969,5.61824 -3.88629,13.77103 -4.77338,17.74183 -1.26728,5.82945 -3.04146,15.16503 -3.29491,17.06593 -0.12674,1.0983 -0.50692,3.63285 -0.84486,5.66052 -0.33794,2.02759 -0.80261,5.78722 -1.05605,8.32173 -0.25346,2.57675 -0.54916,4.94232 -0.63365,5.28029 -0.16896,0.54917 -0.76036,7.09671 -1.30951,14.06671 -0.0845,1.35173 -0.38019,4.6889 -0.5914,7.39246 -0.42242,5.19581 -0.5069,20.57206 -0.12672,22.05052 0.12672,0.4647 0.38018,0.84483 0.54916,0.84483 0.92932,0 7.26569,-11.61667 11.40545,-20.91 0.50691,-1.14055 1.52073,-3.33708 2.19661,-4.85785 1.30951,-2.87248 1.35175,-3.04143 2.99921,-6.75882 1.64745,-3.7173 3.21041,-7.01224 5.82946,-12.63041 1.394,-2.83026 2.49229,-5.28039 2.49229,-5.40709 0,-0.29566 14.36243,-28.93604 16.47454,-32.86459 1.01383,-1.85867 2.36558,-4.43545 3.08371,-5.70272 3.04145,-5.66049 4.43545,-8.23728 8.0683,-14.48915 2.11212,-3.6751 4.05528,-7.05449 4.30873,-7.47691 0.25346,-0.46467 0.76036,-1.18278 1.14054,-1.60522 0.42243,-0.42242 0.71812,-0.88709 0.71812,-1.01382 0,-0.29569 4.64667,-7.22344 7.18121,-10.72957 1.01382,-1.394 2.70352,-3.71733 3.75958,-5.15358 3.92855,-5.40703 16.85473,-21.16345 22.21951,-27.11963 3.88631,-4.26649 19.98068,-20.31861 23.95146,-23.86697 2.36558,-2.06989 4.56218,-4.09752 4.94236,-4.47769 2.57679,-2.53456 20.69879,-17.23492 27.28862,-22.0928 2.78799,-2.06987 5.74496,-4.26648 6.54756,-4.85787 0.80261,-0.63364 1.94316,-1.43625 2.53455,-1.85867 0.5914,-0.38019 1.98539,-1.39399 3.16818,-2.1966 1.73194,-1.26728 8.15279,-5.53376 15.84091,-10.56061 0.80261,-0.54916 2.32333,-1.43624 3.3794,-2.02764 1.05606,-0.54914 2.66127,-1.43624 3.5906,-1.9854 1.98539,-1.14055 9.88473,-5.11133 12.03909,-6.04066 3.33715,-1.47848 11.40546,-4.43546 14.36243,-5.32255 1.73194,-0.5069 3.71733,-1.0983 4.43546,-1.30951 2.36557,-0.71812 9.67352,-2.15436 16.26333,-3.21042 10.22266,-1.56298 22.76866,-1.47849 30.41454,0.33794 12.41927,2.87248 23.1066,11.32096 29.48521,23.36006 1.35175,2.57678 3.25267,7.13897 3.88631,9.29333 3.63284,12.96843 4.39321,18.9246 4.39321,36.32848 0.0422,12.58825 -0.33794,24.37388 -0.8026,26.61273 -0.12673,0.46466 -0.5914,4.56218 -1.05608,9.08211 -1.09829,10.51838 -2.95696,21.29019 -5.23805,29.99214 -0.59139,2.1966 -1.18279,4.47769 -1.35176,5.06909 -2.06988,8.02605 -6.71654,20.23412 -10.94078,28.93605 -7.01225,14.48915 -15.67195,26.52829 -28.1757,39.28541 -11.74339,11.95465 -22.59969,18.62899 -35.77933,22.00831 -7.68812,1.98545 -15.50297,2.83026 -23.48679,2.57684 -7.18121,-0.21127 -10.5606,-0.7181 -15.71419,-2.36557 -9.96921,-3.16823 -19.64272,-11.53219 -28.64036,-24.66962 -2.61902,-3.80177 -6.54757,-9.9692 -6.54757,-10.22261 -2.00733,-3.77054 -4.22476,-7.44516 -6.1674,-11.53221 l -5.61296,-13.52813 c -19.01338,32.52045 -19.9874,32.74747 -39.12177,54.29207 -8.27951,7.30797 -16.85472,12.84165 -21.79708,14.0667 -2.91473,0.76046 -9.2511,1.64752 -11.57443,1.68976 -3.29863,-0.2734 -4.0479,-0.66584 -7.09672,-4.05528 -2.50131,-3.72641 -2.40782,-11.2365 -1.60522,-17.27722 1.64746,-12.33477 6.46309,-29.82313 11.61667,-42.03117 6.0829,-14.40467 16.98145,-31.55509 24.83855,-39.07424 4.01301,-3.88631 5.74496,-5.15358 9.84248,-7.26571 9.50454,-4.90011 16.93921,-5.36478 24.58509,-1.52072 5.49152,2.74576 8.44849,7.47691 12.46151,19.98067 2.66128,8.2795 2.66686,8.27969 8.36401,22.59969 -0.4858,-3.71205 19.2203,-38.60958 21.96605,-42.70709 0.33794,-0.50691 2.28109,-3.16817 4.26648,-5.95618 3.25267,-4.43546 25.85237,-37.89145 28.00673,-41.48206 1.22503,-2.02764 3.04145,-3.71733 4.13975,-3.92854 4.09753,-0.76037 7.47692,4.18198 4.98462,7.35017 -0.46467,0.5914 -6.3786,9.42008 -13.22187,19.60049 -6.80104,10.22267 -13.51758,20.14964 -14.95383,22.13503 -1.43623,1.98539 -2.99922,4.18201 -3.50612,4.85788 -0.76036,1.0983 -3.21041,4.30873 -8.23727,11.02527 -2.15437,2.83025 -5.99842,7.60364 -14.86934,18.4177 -4.73114,5.74497 -8.5752,10.56061 -8.5752,10.68733 0,0.33794 1.6897,4.09752 4.09751,9.08212 3.5906,7.43463 8.19502,14.95379 14.53139,23.90924 1.64745,2.4078 5.74497,6.84329 8.57522,9.42004 9.29333,8.4062 22.43072,11.0675 39.79236,8.02607 15.75642,-2.70355 26.486,-8.70194 39.032,-21.79713 3.42163,-3.54835 12.12357,-14.0667 14.48915,-17.4461 9.1666,-13.22188 16.05212,-28.17569 20.6143,-44.56576 0.25346,-0.92932 0.63364,-2.15436 0.80261,-2.74575 0.2112,-0.59139 0.67587,-2.36557 1.05606,-4.01303 0.33794,-1.60521 0.84485,-3.71734 1.05606,-4.64667 1.47848,-6.37861 3.3794,-18.71339 4.01304,-25.76788 0.12672,-1.6052 0.42241,-4.3932 0.63362,-6.12515 0.16898,-1.73194 0.38019,-4.01302 0.42242,-5.06909 0.0422,-1.05606 0.12674,-2.74576 0.21123,-3.80182 0.54915,-6.80103 0.67588,-21.20569 0.25345,-26.90842 -0.50691,-6.42085 -1.73194,-15.37624 -2.57679,-18.37545 -0.21121,-0.8871 -0.63364,-2.40783 -0.88709,-3.37939 -1.81643,-6.97 -5.49152,-13.81329 -9.80025,-18.41771 -9.25108,-9.80023 -22.76866,-12.92618 -43.38297,-10.01146 -12.33478,1.7742 -20.86775,4.01305 -30.83696,8.11055 -3.80182,1.56297 -13.1374,6.12515 -15.62971,7.64588 -0.80259,0.50692 -1.9009,1.09831 -2.45006,1.35176 -0.50689,0.21121 -1.47848,0.76037 -2.11211,1.22503 -0.63363,0.42243 -4.7734,3.16819 -9.1666,6.12515 -4.43546,2.91473 -8.74419,5.82946 -9.63128,6.46309 -0.84484,0.67588 -2.36558,1.73194 -3.3794,2.45007 -0.97157,0.67588 -2.74575,2.02764 -3.97078,2.95696 -1.22503,0.92934 -3.97079,3.04146 -6.08291,4.64667 -10.0537,7.68813 -16.4323,13.05292 -28.85158,24.33164 -18.45994,16.72799 -36.53969,37.638 -50.85987,58.8437 -3.0837,4.60442 -10.34939,16.4323 -11.10976,18.16424 -0.21122,0.46467 -0.84485,1.64745 -1.35177,2.57679 -1.22503,2.15436 -4.47769,8.11054 -7.35017,13.51757 -2.19661,4.13976 -14.32019,28.42918 -16.64352,33.3715 -0.63364,1.39406 -2.15436,4.64666 -3.33714,7.18118 -1.22505,2.57684 -2.95698,6.37861 -3.88631,8.44853 -0.92935,2.11215 -2.23885,4.98464 -2.91473,6.46307 -0.67588,1.47853 -1.22502,2.74579 -1.22502,2.83026 0,0.25342 -3.54838,7.77257 -6.20965,13.09521 -4.01303,8.06822 -5.82945,10.94068 -8.82866,13.93996 -2.74576,2.70341 -3.92855,3.33706 -7.39243,3.75952 -1.77418,0.21118 -2.5181,0.63323 -5.401133,-0.98778 -3.25268,-2.06998 -2.54044,-2.85632 -3.25856,-6.23561 -0.54915,-2.61905 -1.01382,-15.16502 -0.71811,-19.76945 z m 70.375873,0.84482 c 7.4769,-0.80258 11.61666,-2.95697 21.20569,-10.94081 11.44769,-9.50451 29.40809,-28.8055 47.27664,-50.0957 -4.6032,-15.28609 -2.91618,-9.60866 -4.77021,-15.47508 -3.23244,-10.22803 -6.30467,-14.01392 -8.12111,-15.5769 -1.56296,-1.26726 -4.94235,-2.32333 -7.60362,-2.32333 -3.54836,0 -10.09594,2.61904 -14.40467,5.78721 -2.32333,1.6897 -6.80103,6.42086 -8.57522,9.03989 -0.67588,1.01382 -1.68968,2.40781 -2.1966,3.04145 -1.81642,2.23885 -7.85709,12.33479 -10.68733,17.78405 -2.87248,5.57601 -6.63206,14.70037 -8.44849,20.52981 -0.5069,1.73193 -1.3095,4.2243 -1.73193,5.49156 -0.38018,1.26726 -1.22503,4.43539 -1.81643,6.97 -0.63364,2.57675 -1.30952,5.44923 -1.56296,6.42084 -2.09454,9.75898 -5.47673,20.03721 1.43624,19.34701 z"
       id="path7-4"
       inkscape:connector-curvature="0"
       style="opacity:0.97000002;fill:#0d47a1;fill-opacity:1;stroke:#0d47a1;stroke-width:0;stroke-miterlimit:4;stroke-dasharray:none;stroke-opacity:0.01960784"
       sodipodi:nodetypes="cccccsscccssccccscccccsccscscccccsccccccccccccccccccccccccccccccccccccccccccccccccccscccsccccccccccccscccccccccccccscccccccccsscccccccccscsccccccccc"
       inkscape:export-xdpi="600"
       inkscape:export-ydpi="600" />
    <flowRoot
       xml:space="preserve"
       id="flowRoot824"
       style="font-style:normal;font-variant:normal;font-weight:normal;font-stretch:normal;font-size:40px;line-height:1.25;font-family:K2D;-inkscape-font-specification:K2D;letter-spacing:3.53076005px;word-spacing:0px;fill:#000000;fill-opacity:1;stroke:none"
       transform="matrix(1.6993508,0,0,1.6993508,-74.732781,369.67735)"><flowRegion
         id="flowRegion826"
         style="font-style:normal;font-variant:normal;font-weight:normal;font-stretch:normal;font-family:K2D;-inkscape-font-specification:K2D;letter-spacing:3.53076005px"><rect
           id="rect828"
           width="387.85715"
           height="96.428574"
           x="60.714287"
           y="398.57144"
           style="font-style:normal;font-variant:normal;font-weight:normal;font-stretch:normal;font-family:K2D;-inkscape-font-specification:K2D;letter-spacing:3.53076005px" /></flowRegion><flowPara
         id="flowPara830"
         style="font-style:normal;font-variant:normal;font-weight:normal;font-stretch:normal;font-family:K2D;-inkscape-font-specification:K2D;letter-spacing:3.53076005px;fill:#ffffff;fill-opacity:1">DUAYENLER</flowPara></flowRoot>  </g>
</svg>
