<?xml version="1.0" encoding="UTF-8" standalone="no"?>
<!-- Created with Inkscape (http://www.inkscape.org/) -->

<svg
   xmlns:dc="http://purl.org/dc/elements/1.1/"
   xmlns:cc="http://creativecommons.org/ns#"
   xmlns:rdf="http://www.w3.org/1999/02/22-rdf-syntax-ns#"
   xmlns:svg="http://www.w3.org/2000/svg"
   xmlns="http://www.w3.org/2000/svg"
   xmlns:sodipodi="http://sodipodi.sourceforge.net/DTD/sodipodi-0.dtd"
   xmlns:inkscape="http://www.inkscape.org/namespaces/inkscape"
   width="500"
   height="500"
   viewBox="0 0 499.99999 500.00002"
   version="1.1"
   id="svg1401"
   inkscape:export-filename="C:\Users\Erdem\Desktop\logo1.png"
   inkscape:export-xdpi="96"
   inkscape:export-ydpi="96"
   inkscape:version="0.92.3 (2405546, 2018-03-11)"
   sodipodi:docname="logo-1-h.svg">
  <defs
     id="defs1395">
    <linearGradient
       id="linearGradient4577">
      <stop
         style="stop-color:#0d47a1;stop-opacity:1;"
         offset="0"
         id="stop4573" />
      <stop
         id="stop4601"
         offset="0.25"
         style="stop-color:#0d47a1;stop-opacity:0.39607843;" />
      <stop
         id="stop4599"
         offset="0.5"
         style="stop-color:#0d47a1;stop-opacity:0.50980392;" />
      <stop
         style="stop-color:#0d47a1;stop-opacity:0.25899279;"
         offset="1"
         id="stop4575" />
    </linearGradient>
  </defs>
  <sodipodi:namedview
     id="base"
     pagecolor="#ffffff"
     bordercolor="#666666"
     borderopacity="1.0"
     inkscape:pageopacity="0"
     inkscape:pageshadow="2"
     inkscape:zoom="1.4"
     inkscape:cx="44.142737"
     inkscape:cy="262.52695"
     inkscape:document-units="px"
     inkscape:current-layer="layer1"
     showgrid="false"
     units="px"
     inkscape:snap-bbox="true"
     inkscape:bbox-paths="true"
     inkscape:bbox-nodes="true"
     inkscape:pagecheckerboard="true"
     inkscape:showpageshadow="false"
     inkscape:window-width="1920"
     inkscape:window-height="1003"
     inkscape:window-x="-9"
     inkscape:window-y="-9"
     inkscape:window-maximized="1" />
  <metadata
     id="metadata1398">
    <rdf:RDF>
      <cc:Work
         rdf:about="">
        <dc:format>image/svg+xml</dc:format>
        <dc:type
           rdf:resource="http://purl.org/dc/dcmitype/StillImage" />
        <dc:title />
      </cc:Work>
    </rdf:RDF>
  </metadata>
  <g
     inkscape:label="Layer 1"
     inkscape:groupmode="layer"
     id="layer1"
     transform="translate(0,-622.51962)">
    <rect
       style="opacity:1;fill:#ce2043;fill-opacity:1;fill-rule:nonzero;stroke:none;stroke-width:0;stroke-miterlimit:4;stroke-dasharray:none;stroke-opacity:1;paint-order:fill markers stroke"
       id="rect860"
       width="500"
       height="500"
       x="0"
       y="622.51959"
       rx="50" />
    <g
       id="layer102"
       style="fill:#ff0000;fill-opacity:1;stroke:none;stroke-width:0;stroke-miterlimit:4;stroke-dasharray:none;stroke-opacity:1"
       transform="matrix(0,0.0682005,-0.0682005,0,713.5288,556.17862)"
       inkscape:export-xdpi="600"
       inkscape:export-ydpi="600" />
    <g
       id="layer102-5"
       style="fill:#0d47a1;fill-opacity:1;stroke:#0d47a1;stroke-width:0;stroke-miterlimit:4;stroke-dasharray:none;stroke-opacity:0.01960784"
       transform="matrix(0,0.04786275,-0.04786275,0,544.81136,628.18377)"
       inkscape:export-xdpi="600"
       inkscape:export-ydpi="600" />
    <circle
       style="opacity:1;fill:#ffffff;fill-opacity:1;fill-rule:nonzero;stroke:none;stroke-width:0;stroke-miterlimit:4;stroke-dasharray:none;stroke-opacity:1;paint-order:fill markers stroke"
       id="path824-9"
       cx="250"
       cy="838.76959"
       r="191.25" />
    <path
       d="m 100.95751,926.97642 c 1.14257,-18.2812 1.91789,-26.36079 4.03981,-41.62233 1.14257,-8.16124 2.81562,-17.34263 4.24384,-23.05549 0.20403,-0.77532 0.57129,-2.32596 0.85693,-3.46853 2.89724,-12.24185 13.2212,-43.29536 17.54666,-52.76239 0.65289,-1.42822 1.18338,-2.81563 1.18338,-3.06047 0,-0.28564 0.24483,-0.85693 0.53048,-1.30579 0.28564,-0.44887 0.97935,-1.83628 1.46902,-3.06047 2.85644,-6.77382 7.67156,-15.38393 9.46703,-16.93457 3.89255,8.94851 1.75678,13.18848 -0.69371,19.46455 -0.53047,1.30581 -1.42821,3.3053 -1.95869,4.48869 -0.53048,1.18337 -1.91789,4.6519 -3.10127,7.67156 -1.18338,3.01965 -2.28515,5.87609 -2.48917,6.32496 -1.10177,2.57079 -6.77383,19.46455 -9.50785,28.36029 -1.63224,5.42722 -3.75416,13.30281 -4.61109,17.1386 -1.22419,5.63125 -2.93805,14.64942 -3.18288,16.48569 -0.12243,1.06096 -0.48968,3.50934 -0.81613,5.46807 -0.32645,1.95865 -0.77532,5.59045 -1.02015,8.03879 -0.24484,2.48914 -0.53049,4.77428 -0.6121,5.10076 -0.16322,0.53049 -0.73451,6.85542 -1.26499,13.58844 -0.0816,1.30577 -0.36726,4.52948 -0.57129,7.14111 -0.40806,5.01916 -0.48967,19.87261 -0.12241,21.30081 0.12241,0.4489 0.36725,0.8161 0.53048,0.8161 0.89773,0 7.01866,-11.2217 11.01767,-20.19906 0.48967,-1.10177 1.46902,-3.22362 2.12192,-4.69268 1.26499,-2.77482 1.30579,-2.93802 2.89724,-6.52902 1.59144,-3.59091 3.10126,-6.77382 5.63126,-12.20098 1.3466,-2.73403 2.40755,-5.10085 2.40755,-5.22325 0,-0.2856 13.87411,-27.95221 15.91441,-31.74719 0.97936,-1.79547 2.28515,-4.28464 2.97886,-5.50883 2.93804,-5.46803 4.28465,-7.95721 7.79398,-13.99652 2.04031,-3.55014 3.9174,-6.81463 4.16223,-7.22269 0.24484,-0.44887 0.73451,-1.14257 1.10176,-1.55064 0.40807,-0.40806 0.69371,-0.85693 0.69371,-0.97935 0,-0.28564 4.48868,-6.97785 6.93705,-10.36477 0.97935,-1.3466 2.6116,-3.59094 3.63175,-4.97836 3.79498,-5.22319 16.28167,-20.44389 21.46405,-26.19756 3.75417,-4.12143 19.30133,-19.62777 23.13711,-23.05549 2.28515,-1.99951 4.40706,-3.9582 4.77432,-4.32545 2.48918,-2.44838 19.99503,-16.64893 26.3608,-21.34164 2.6932,-1.9995 5.54963,-4.12142 6.32495,-4.69271 0.77532,-0.61209 1.87709,-1.38741 2.44837,-1.79547 0.57129,-0.36726 1.91789,-1.3466 3.06046,-2.12192 1.67306,-1.22419 7.8756,-5.34561 15.30232,-10.20155 0.77532,-0.53048 2.24434,-1.3874 3.2645,-1.9587 1.02016,-0.53047 2.57079,-1.3874 3.46852,-1.91789 1.91789,-1.10177 9.54865,-4.93755 11.62976,-5.83528 3.22369,-1.42821 11.01768,-4.28465 13.87411,-5.14158 1.67305,-0.48967 3.59094,-1.06096 4.28465,-1.26499 2.28514,-0.6937 9.34462,-2.08111 15.71038,-3.10127 9.87509,-1.50983 21.99453,-1.42822 29.38045,0.32645 11.99701,2.77482 22.32097,10.93605 28.48271,22.56582 1.30579,2.48917 3.14208,6.89625 3.75417,8.97736 3.50933,12.5275 4.24384,18.28116 4.24384,35.09331 0.0408,12.16025 -0.32645,23.54517 -0.77531,25.7079 -0.12242,0.44886 -0.57129,4.40706 -1.02017,8.77332 -1.06095,10.16075 -2.85642,20.56632 -5.05996,28.9724 -0.57128,2.12192 -1.14257,4.32545 -1.3058,4.89674 -1.9995,7.75317 -6.48817,19.54616 -10.56879,27.95223 -6.77383,13.99652 -15.1391,25.62632 -27.21773,37.9497 -11.34411,11.54819 -21.8313,17.99561 -34.56283,21.26003 -7.42672,1.91794 -14.97587,2.73403 -22.68824,2.48923 -6.93705,-0.20409 -10.20154,-0.69369 -15.1799,-2.28514 -9.63026,-3.06051 -18.97487,-11.1401 -27.66659,-23.83086 -2.52998,-3.67251 -6.32495,-9.63024 -6.32495,-9.87504 -1.93909,-3.64234 -4.08112,-7.19202 -5.95771,-11.14011 l -5.42212,-13.06818 c -18.36693,31.41476 -19.30783,31.63406 -37.79163,52.44614 -7.99801,7.0595 -16.28166,12.40504 -21.05598,13.58844 -2.81563,0.7346 -8.93656,1.5915 -11.1809,1.6323 -3.18648,-0.2641 -3.91027,-0.6432 -6.85543,-3.9174 -2.41627,-3.59971 -2.32596,-10.85446 -1.55064,-16.68979 1.59144,-11.91539 6.24334,-28.80914 11.2217,-40.60211 5.87608,-13.91491 16.40408,-30.48222 23.99404,-37.74572 3.87657,-3.75417 5.54963,-4.97835 9.50783,-7.01867 9.18139,-4.73351 16.36328,-5.18238 23.7492,-1.46902 5.30481,2.65241 8.16124,7.2227 12.03782,19.30133 2.5708,7.998 2.57619,7.99818 8.07963,21.8313 -0.46928,-3.58584 18.56681,-37.29685 21.21921,-41.25505 0.32645,-0.48967 2.20353,-3.06045 4.12142,-5.75367 3.14208,-4.28465 24.97339,-36.60314 27.0545,-40.07167 1.18338,-1.9587 2.93804,-3.59094 3.999,-3.79497 3.95821,-0.73451 7.2227,4.0398 4.81514,7.10027 -0.44887,0.57129 -6.16173,9.09979 -12.77233,18.93407 -6.5698,9.8751 -13.05798,19.46455 -14.4454,21.38244 -1.3874,1.91789 -2.89724,4.03982 -3.38691,4.69271 -0.73451,1.06096 -3.10126,4.16223 -7.9572,10.65041 -2.08112,2.73402 -5.79448,7.34512 -14.36378,17.7915 -4.57029,5.54964 -8.28365,10.20155 -8.28365,10.32396 0,0.32645 1.63225,3.9582 3.9582,8.77333 3.46852,7.18185 7.91639,14.44536 14.03732,23.09632 1.59144,2.32594 5.54964,6.61062 8.28366,9.09976 8.97736,8.12039 21.66808,10.69121 38.43942,7.75319 15.2207,-2.61163 25.58548,-8.40608 37.70491,-21.05603 3.3053,-3.42771 11.71137,-13.58843 13.99652,-16.85293 8.85494,-12.77234 15.50635,-27.21772 19.91342,-43.05053 0.24484,-0.89772 0.61209,-2.08111 0.77532,-2.65239 0.20402,-0.57129 0.65289,-2.28514 1.02015,-3.87659 0.32645,-1.55063 0.81613,-3.59095 1.02015,-4.48868 1.42822,-6.16174 3.2645,-18.07714 3.8766,-24.89177 0.12241,-1.55063 0.40805,-4.24384 0.61208,-5.9169 0.16323,-1.67305 0.36726,-3.87658 0.40806,-4.89674 0.0408,-1.02015 0.12243,-2.6524 0.20404,-3.67256 0.53048,-6.56979 0.6529,-20.48469 0.24484,-25.99353 -0.48968,-6.20254 -1.67306,-14.85345 -2.48918,-17.75069 -0.20403,-0.85693 -0.6121,-2.32596 -0.85693,-3.26449 -1.75467,-6.73302 -5.30481,-13.34363 -9.46704,-17.7915 -8.93655,-9.46703 -21.99453,-12.48669 -41.90795,-9.67107 -11.9154,1.71387 -20.15825,3.8766 -29.7885,7.83479 -3.67256,1.50983 -12.69073,5.91689 -15.0983,7.38592 -0.77531,0.48968 -1.83627,1.06096 -2.36676,1.3058 -0.48966,0.20403 -1.42821,0.73451 -2.0403,1.18338 -0.61209,0.40806 -4.6111,3.06047 -8.85494,5.91689 -4.28465,2.81563 -8.44688,5.63126 -9.30381,6.24335 -0.81612,0.6529 -2.28515,1.67305 -3.2645,2.36676 -0.93854,0.6529 -2.6524,1.9587 -3.83578,2.85643 -1.18337,0.89774 -3.83578,2.93805 -5.87609,4.48868 -9.71187,7.42673 -15.8736,12.60912 -27.87062,23.50436 -17.8323,16.15924 -35.29734,36.35831 -49.13064,56.84302 -2.97885,4.44787 -9.99751,15.8736 -10.73202,17.54665 -0.20404,0.44887 -0.81613,1.59144 -1.30581,2.48918 -1.18338,2.08111 -4.32545,7.83478 -7.10027,13.05797 -2.12192,3.99901 -13.8333,27.46259 -16.07764,32.23687 -0.61209,1.34666 -2.08111,4.48868 -3.22368,6.93702 -1.18339,2.48923 -2.85644,6.16174 -3.75417,8.16128 -0.89775,2.04034 -2.16273,4.81516 -2.81563,6.24333 -0.6529,1.42826 -1.18337,2.65243 -1.18337,2.73403 0,0.2448 -3.42773,7.5083 -5.99852,12.64997 -3.87659,7.7939 -5.63125,10.5687 -8.52849,13.466 -2.6524,2.6115 -3.79498,3.2236 -7.14108,3.6317 -1.71386,0.204 -2.43249,0.6117 -5.21751,-0.9542 -3.14208,-1.9996 -2.45406,-2.7592 -3.14776,-6.0236 -0.53048,-2.53 -0.97935,-14.6494 -0.6937,-19.09728 z m 67.9831,0.81609 c 7.22269,-0.77529 11.22169,-2.85643 20.4847,-10.56882 11.05847,-9.18136 28.40821,-27.82611 45.66923,-48.39245 -4.44669,-14.76636 -2.81703,-9.28196 -4.60802,-14.94892 -3.12254,-9.88028 -6.09031,-13.53745 -7.84499,-15.04729 -1.50982,-1.22417 -4.77431,-2.24433 -7.3451,-2.24433 -3.42772,0 -9.75268,2.52999 -13.91491,5.59044 -2.24434,1.63225 -6.5698,6.20255 -8.28366,8.73253 -0.6529,0.97935 -1.63224,2.32595 -2.12192,2.93804 -1.75466,2.16273 -7.58995,11.91541 -10.32396,17.1794 -2.77482,5.38642 -6.40657,14.20055 -8.16124,19.83179 -0.48967,1.67305 -1.26498,4.08068 -1.67305,5.30485 -0.36725,1.22417 -1.18338,4.28459 -1.75467,6.73302 -0.61209,2.48914 -1.26499,5.26396 -1.50982,6.20253 -2.02332,9.42718 -5.29052,19.35595 1.38741,18.68921 z"
       id="path7-4"
       inkscape:connector-curvature="0"
       style="opacity:0.97000002;fill:#0d47a1;fill-opacity:1;stroke:#0d47a1;stroke-width:0;stroke-miterlimit:4;stroke-dasharray:none;stroke-opacity:0.01960784"
       sodipodi:nodetypes="cccccsscccssccccscccccsccscscccccsccccccccccccccccccccccccccccccccccccccccccccccccccscccsccccccccccccscccccccccccccscccccccccsscccccccccscsccccccccc"
       inkscape:export-xdpi="600"
       inkscape:export-ydpi="600" />
    <flowRoot
       xml:space="preserve"
       id="flowRoot824"
       style="font-style:normal;font-variant:normal;font-weight:normal;font-stretch:normal;font-size:40px;line-height:1.25;font-family:K2D;-inkscape-font-specification:K2D;letter-spacing:3.53076005px;word-spacing:0px;fill:#000000;fill-opacity:1;stroke:none"
       transform="matrix(1.6993508,0,0,1.6993508,-74.732781,363.67735)"><flowRegion
         id="flowRegion826"
         style="font-style:normal;font-variant:normal;font-weight:normal;font-stretch:normal;font-family:K2D;-inkscape-font-specification:K2D;letter-spacing:3.53076005px"><rect
           id="rect828"
           width="387.85715"
           height="96.428574"
           x="60.714287"
           y="398.57144"
           style="font-style:normal;font-variant:normal;font-weight:normal;font-stretch:normal;font-family:K2D;-inkscape-font-specification:K2D;letter-spacing:3.53076005px" /></flowRegion><flowPara
         id="flowPara830"
         style="font-style:normal;font-variant:normal;font-weight:normal;font-stretch:normal;font-family:K2D;-inkscape-font-specification:K2D;letter-spacing:3.53076005px;fill:#ffffff;fill-opacity:1">DUAYENLER</flowPara></flowRoot>  </g>
</svg>
